<svg xmlns="http://www.w3.org/2000/svg" viewBox="0 0 512 512">
  <path fill="#eab308" d="M374.9 31.5c-4.3-16-24-21.7-35.8-9.6L193.5 170.8c-12.7 12.5-20.9 29.1-23.7 47l-16.7-5c-15.6-4.7-32.9.2-44.1 12.3l-19.6 21.1c-11.2 12-29 16.5-44.7 11.2L11 247.7C3.9 245.3-1.6 238.2.4 230.8s9.9-11.5 17.5-9l34 11.3c8.6 2.9 17.5.5 23.6-6l19.6-21.1c16.3-17.6 42.1-23.8 64.9-15.1l80-20.5 86.8-59c23.3-15.8 45.4-33.1 66.8-51.4 6-5.1 13.9-9.1 22.1-10.7l23.5-4.5c17.5-3.3 27-21.6 20.3-37.5zM224 256c-17.7 0-32 14.3-32 32s14.3 32 32 32 32-14.3 32-32-14.3-32-32-32zM122.9 397.7l16-64.1c1.3-5.3 5.4-9.6 10.6-11l64-16.1c7.7-1.9 15.5 2.1 18.2 9.5l37.1 102.1c2 5.5.9 11.6-2.9 16.1l-48 56c-4.9 5.7-12.9 7-19.1 3l-16-10.6c-4.5-3-8-7.5-10.1-12.6l-20.2-46.7-17-10.6c-7.2-4.5-13.6-10.2-18.7-16.8l-14-18z"/>
  <!-- Decorative wings / horse structure simplification -->
  <path fill="#eab308" d="M192 192c0 35.3 28.7 64 64 64s64-28.7 64-64-28.7-64-64-64-64 28.7-64 64z"/>
  <path fill="#eab308" d="M480 256c0 17.7-14.3 32-32 32s-32-14.3-32-32c0-88.4-71.6-160-160-160-17.7 0-32-14.3-32-32s14.3-32 32-32c123.7 0 224 100.3 224 224z"/>
  <!-- More abstract wing paths for Pegasus look -->
  <path stroke="#eab308" stroke-width="20" stroke-linecap="round" fill="none" d="M280 120 C 350 40, 480 60, 480 60 C 440 140, 360 180, 280 180"/>
  <path stroke="#eab308" stroke-width="20" stroke-linecap="round" fill="none" d="M300 160 C 380 90, 500 110, 500 110 C 450 190, 380 230, 300 230"/>
  <path stroke="#eab308" stroke-width="20" stroke-linecap="round" fill="none" d="M320 200 C 400 130, 520 150, 520 150 C 470 230, 400 270, 320 270"/>
</svg>